<svg 
 xmlns="http://www.w3.org/2000/svg"
 xmlns:xlink="http://www.w3.org/1999/xlink"
 width="12px" height="12px">
<path fill-rule="evenodd"  fill="rgb(255, 255, 255)"
 d="M5.843,-0.000 C5.420,-0.000 5.073,0.347 5.073,0.769 L5.073,5.072 L0.768,5.072 C0.346,5.072 -0.001,5.419 -0.001,5.842 L-0.001,6.156 C-0.001,6.579 0.346,6.926 0.768,6.926 L5.073,6.926 L5.073,11.229 C5.073,11.651 5.420,11.998 5.843,11.998 L6.158,11.998 C6.583,11.998 6.927,11.647 6.927,11.229 L6.927,6.926 L11.232,6.926 C11.655,6.926 12.002,6.579 12.002,6.156 L12.002,5.842 C12.002,5.419 11.655,5.072 11.232,5.072 L6.927,5.072 L6.927,0.769 C6.927,0.351 6.583,-0.000 6.158,-0.000 L5.843,-0.000 L5.843,-0.000 Z"/>
</svg>