<svg 
 xmlns="http://www.w3.org/2000/svg"
 xmlns:xlink="http://www.w3.org/1999/xlink"
 width="20px" height="14px">
<path fill-rule="evenodd"  fill="rgb(10, 96, 201)"
 d="M15.408,13.924 L12.759,13.924 L12.759,12.131 L15.413,12.131 C16.600,12.135 17.654,11.388 18.021,10.284 C18.486,8.882 17.699,7.377 16.264,6.922 C15.907,6.807 15.658,6.491 15.635,6.124 C15.452,3.664 13.343,1.767 10.818,1.792 C8.352,1.792 6.244,3.639 6.024,5.972 C5.980,6.435 5.582,6.788 5.106,6.786 L4.558,6.786 C3.048,6.786 1.824,7.982 1.824,9.457 C1.824,10.933 3.048,12.129 4.558,12.129 L7.207,12.129 L7.207,13.922 L4.558,13.922 L4.551,13.922 C2.133,13.911 0.141,12.061 0.009,9.701 C-0.129,7.239 1.802,5.134 4.322,4.999 C5.005,2.042 7.715,-0.044 10.818,-0.001 C14.077,-0.009 16.862,2.291 17.397,5.432 C18.997,6.176 20.013,7.757 20.003,9.488 C19.987,11.953 17.930,13.939 15.408,13.924 ZM9.355,7.241 C9.708,6.915 10.260,6.915 10.614,7.241 L13.612,10.011 L12.353,11.313 L10.901,9.968 L10.901,14.002 L9.065,14.002 L9.065,9.968 L7.613,11.313 L6.354,10.011 L9.355,7.241 Z"/>
</svg>