<svg 
 xmlns="http://www.w3.org/2000/svg"
 xmlns:xlink="http://www.w3.org/1999/xlink"
 width="10px" height="10px">
<path fill-rule="evenodd"  fill="rgb(156, 173, 194)"
 d="M9.790,8.953 C10.021,9.184 10.021,9.559 9.790,9.790 C9.559,10.021 9.184,10.021 8.953,9.790 L4.977,5.815 L1.002,9.790 C0.771,10.021 0.396,10.021 0.165,9.790 C-0.066,9.559 -0.066,9.184 0.165,8.953 L4.141,4.978 L0.165,1.002 C-0.066,0.771 -0.066,0.396 0.165,0.165 C0.396,-0.066 0.771,-0.066 1.002,0.165 L4.977,4.141 L8.953,0.165 C9.184,-0.066 9.559,-0.066 9.790,0.165 C10.021,0.396 10.021,0.771 9.790,1.002 L5.814,4.978 L9.790,8.953 Z"/>
</svg>