<svg 
 xmlns="http://www.w3.org/2000/svg"
 xmlns:xlink="http://www.w3.org/1999/xlink"
 width="15px" height="15px">
<path fill-rule="evenodd"  fill="rgb(10, 96, 201)"
 d="M14.731,13.472 C15.079,13.820 15.079,14.384 14.731,14.731 C14.383,15.079 13.820,15.079 13.472,14.731 L7.490,8.749 L1.507,14.731 C1.160,15.079 0.596,15.079 0.248,14.731 C-0.100,14.384 -0.100,13.820 0.248,13.472 L6.230,7.490 L0.248,1.508 C-0.100,1.160 -0.100,0.596 0.248,0.248 C0.596,-0.099 1.160,-0.099 1.507,0.248 L7.490,6.231 L13.472,0.248 C13.820,-0.099 14.383,-0.099 14.731,0.248 C15.079,0.596 15.079,1.160 14.731,1.508 L8.749,7.490 L14.731,13.472 Z"/>
</svg>