<svg 
 xmlns="http://www.w3.org/2000/svg"
 xmlns:xlink="http://www.w3.org/1999/xlink"
 width="16px" height="12px">
<path fill-rule="evenodd"  fill="rgb(10, 96, 201)"
 d="M14.644,10.927 C14.441,10.458 13.966,10.123 13.424,10.123 L2.576,10.123 C2.034,10.123 1.559,10.458 1.356,10.927 L-0.000,10.927 L-0.000,4.894 L1.356,4.894 C1.491,5.430 2.034,5.832 2.576,5.832 L13.424,5.832 C14.034,5.832 14.508,5.430 14.712,4.894 L16.000,4.894 L16.000,10.927 L14.644,10.927 ZM3.186,-0.000 L12.814,-0.000 L13.559,5.162 L2.441,5.162 L3.186,-0.000 ZM13.559,12.000 L2.441,12.000 L2.441,10.793 L13.559,10.793 L13.559,12.000 Z"/>
</svg>