<svg 
 xmlns="http://www.w3.org/2000/svg"
 xmlns:xlink="http://www.w3.org/1999/xlink"
 width="16px" height="16px">
<path fill-rule="evenodd"  fill="rgb(10, 96, 201)"
 d="M15.914,9.167 C15.970,8.786 16.000,8.396 16.000,8.000 C16.000,7.603 15.970,7.214 15.914,6.833 L14.107,6.316 C13.966,5.806 13.764,5.323 13.508,4.873 L14.422,3.229 C13.955,2.602 13.398,2.045 12.771,1.578 L11.127,2.492 C10.677,2.236 10.194,2.034 9.684,1.893 L9.167,0.086 C8.786,0.030 8.397,-0.000 8.000,-0.000 C7.603,-0.000 7.214,0.030 6.833,0.086 L6.316,1.893 C5.806,2.034 5.323,2.236 4.873,2.492 L3.229,1.578 C2.602,2.045 2.045,2.602 1.578,3.229 L2.492,4.873 C2.236,5.323 2.034,5.806 1.893,6.316 L0.086,6.833 C0.030,7.214 0.000,7.603 0.000,8.000 C0.000,8.396 0.030,8.786 0.086,9.167 L1.893,9.684 C2.034,10.194 2.236,10.677 2.492,11.127 L1.578,12.771 C2.045,13.398 2.602,13.955 3.229,14.422 L4.873,13.508 C5.323,13.764 5.806,13.966 6.316,14.107 L6.833,15.914 C7.214,15.970 7.603,16.000 8.000,16.000 C8.397,16.000 8.786,15.970 9.167,15.914 L9.684,14.107 C10.194,13.966 10.677,13.764 11.127,13.508 L12.771,14.422 C13.399,13.955 13.955,13.398 14.422,12.771 L13.509,11.127 C13.764,10.677 13.967,10.194 14.107,9.684 L15.914,9.167 ZM8.000,11.429 C6.106,11.429 4.571,9.893 4.571,8.000 C4.571,6.106 6.106,4.571 8.000,4.571 C9.893,4.571 11.429,6.106 11.429,8.000 C11.429,9.893 9.893,11.429 8.000,11.429 Z"/>
</svg>