<svg 
 xmlns="http://www.w3.org/2000/svg"
 xmlns:xlink="http://www.w3.org/1999/xlink"
 width="17px" height="14px">
<path fill-rule="evenodd"  fill="rgb(244, 203, 11)"
 d="M1.049,13.996 L14.986,13.996 C15.800,13.996 16.299,13.141 15.905,12.441 L8.923,0.521 C8.529,-0.179 7.506,-0.179 7.112,0.521 L0.130,12.441 C-0.264,13.115 0.235,13.996 1.049,13.996 ZM8.004,4.201 C8.451,4.201 8.818,4.564 8.792,5.004 L8.661,9.539 C8.661,9.902 8.346,10.187 8.004,10.187 C7.637,10.187 7.348,9.902 7.348,9.539 L7.217,5.004 C7.217,4.564 7.558,4.201 8.004,4.201 ZM8.004,10.731 C8.451,10.731 8.818,11.094 8.818,11.534 C8.818,11.975 8.451,12.338 8.004,12.338 C7.558,12.338 7.191,11.975 7.191,11.534 C7.191,11.120 7.558,10.731 8.004,10.731 Z"/>
</svg>