<svg 
 xmlns="http://www.w3.org/2000/svg"
 xmlns:xlink="http://www.w3.org/1999/xlink"
 width="16px" height="16px">
<path fill-rule="evenodd"  fill="rgb(10, 96, 201)"
 d="M8.000,-0.001 C3.581,-0.001 -0.001,3.581 -0.001,8.000 C-0.001,12.418 3.581,16.000 8.000,16.000 C12.418,16.000 16.000,12.418 16.000,8.000 C16.000,3.581 12.418,-0.001 8.000,-0.001 L8.000,-0.001 ZM8.718,12.412 C8.718,12.725 8.465,12.978 8.152,12.978 L7.604,12.978 C7.291,12.978 7.038,12.725 7.038,12.412 L7.038,11.689 C7.038,11.377 7.291,11.123 7.604,11.123 L8.152,11.123 C8.465,11.123 8.718,11.377 8.718,11.689 L8.718,12.412 ZM10.755,6.261 C10.541,6.642 10.272,6.990 9.956,7.292 L9.401,7.858 C9.180,8.062 8.995,8.301 8.854,8.566 C8.768,8.782 8.728,9.013 8.735,9.245 C8.735,9.285 8.735,9.330 8.735,9.383 C8.735,9.437 8.729,9.487 8.726,9.546 C8.726,9.546 8.726,9.555 8.726,9.560 L8.726,10.132 C8.726,10.257 8.625,10.359 8.500,10.359 L7.264,10.359 C7.139,10.359 7.038,10.257 7.038,10.132 L7.038,9.343 C7.028,8.964 7.095,8.587 7.234,8.235 C7.404,7.871 7.641,7.542 7.932,7.265 L8.498,6.683 C8.706,6.487 8.886,6.264 9.035,6.021 C9.128,5.855 9.177,5.668 9.177,5.478 C9.194,5.223 9.086,4.976 8.888,4.816 C8.695,4.665 8.405,4.589 8.019,4.589 C7.639,4.595 7.264,4.674 6.915,4.823 C6.624,4.942 6.346,5.091 6.084,5.265 C5.980,5.334 5.839,5.305 5.771,5.200 C5.747,5.164 5.734,5.121 5.733,5.077 L5.733,3.892 C5.733,3.811 5.776,3.736 5.847,3.696 C6.204,3.490 6.583,3.327 6.978,3.208 C7.390,3.085 7.817,3.022 8.246,3.021 C9.093,3.021 9.758,3.226 10.241,3.637 C10.724,4.047 10.965,4.613 10.965,5.334 C10.970,5.655 10.899,5.972 10.758,6.261 L10.755,6.261 Z"/>
</svg>